<mxfile host="app.diagrams.net" agent="Mozilla/5.0 (X11; Ubuntu; Linux x86_64; rv:137.0) Gecko/20100101 Firefox/137.0" version="26.2.14">
  <diagram name="PÃ¡gina-1" id="ag0AkZOSgyhq11PLBRHJ">
    <mxGraphModel dx="960" dy="1610" grid="0" gridSize="10" guides="1" tooltips="1" connect="1" arrows="1" fold="1" page="0" pageScale="1" pageWidth="827" pageHeight="1169" math="0" shadow="0">
      <root>
        <mxCell id="0" />
        <mxCell id="1" parent="0" />
        <mxCell id="80OvMrxg9aOp4hHYCygl-3" value="" style="edgeStyle=none;curved=1;rounded=0;orthogonalLoop=1;jettySize=auto;html=1;fontSize=12;startSize=8;endSize=8;" edge="1" parent="1" source="80OvMrxg9aOp4hHYCygl-1" target="80OvMrxg9aOp4hHYCygl-2">
          <mxGeometry relative="1" as="geometry" />
        </mxCell>
        <mxCell id="80OvMrxg9aOp4hHYCygl-1" value="inicio" style="ellipse;whiteSpace=wrap;html=1;" vertex="1" parent="1">
          <mxGeometry x="131" y="-186" width="120" height="80" as="geometry" />
        </mxCell>
        <mxCell id="80OvMrxg9aOp4hHYCygl-5" value="" style="edgeStyle=none;curved=1;rounded=0;orthogonalLoop=1;jettySize=auto;html=1;fontSize=12;startSize=8;endSize=8;" edge="1" parent="1" source="80OvMrxg9aOp4hHYCygl-2" target="80OvMrxg9aOp4hHYCygl-4">
          <mxGeometry relative="1" as="geometry" />
        </mxCell>
        <mxCell id="80OvMrxg9aOp4hHYCygl-2" value="&lt;div&gt;ingrese peso(kg)&lt;/div&gt;&lt;div&gt;altura(m)&lt;/div&gt;" style="shape=parallelogram;perimeter=parallelogramPerimeter;whiteSpace=wrap;html=1;fixedSize=1;" vertex="1" parent="1">
          <mxGeometry x="133" y="-55" width="120" height="60" as="geometry" />
        </mxCell>
        <mxCell id="80OvMrxg9aOp4hHYCygl-7" value="" style="edgeStyle=none;curved=1;rounded=0;orthogonalLoop=1;jettySize=auto;html=1;fontSize=12;startSize=8;endSize=8;" edge="1" parent="1" source="80OvMrxg9aOp4hHYCygl-4" target="80OvMrxg9aOp4hHYCygl-6">
          <mxGeometry relative="1" as="geometry" />
        </mxCell>
        <mxCell id="80OvMrxg9aOp4hHYCygl-4" value="calcular imc = peso/altura al cuadraro" style="whiteSpace=wrap;html=1;" vertex="1" parent="1">
          <mxGeometry x="131" y="45" width="120" height="60" as="geometry" />
        </mxCell>
        <mxCell id="80OvMrxg9aOp4hHYCygl-9" value="" style="edgeStyle=none;curved=1;rounded=0;orthogonalLoop=1;jettySize=auto;html=1;fontSize=12;startSize=8;endSize=8;" edge="1" parent="1" source="80OvMrxg9aOp4hHYCygl-6" target="80OvMrxg9aOp4hHYCygl-8">
          <mxGeometry relative="1" as="geometry" />
        </mxCell>
        <mxCell id="80OvMrxg9aOp4hHYCygl-13" value="si" style="edgeLabel;html=1;align=center;verticalAlign=middle;resizable=0;points=[];fontSize=12;" vertex="1" connectable="0" parent="80OvMrxg9aOp4hHYCygl-9">
          <mxGeometry x="-0.2909" relative="1" as="geometry">
            <mxPoint as="offset" />
          </mxGeometry>
        </mxCell>
        <mxCell id="80OvMrxg9aOp4hHYCygl-11" value="" style="edgeStyle=none;curved=1;rounded=0;orthogonalLoop=1;jettySize=auto;html=1;fontSize=12;startSize=8;endSize=8;" edge="1" parent="1" source="80OvMrxg9aOp4hHYCygl-6" target="80OvMrxg9aOp4hHYCygl-10">
          <mxGeometry relative="1" as="geometry" />
        </mxCell>
        <mxCell id="80OvMrxg9aOp4hHYCygl-12" value="no." style="edgeLabel;html=1;align=center;verticalAlign=middle;resizable=0;points=[];fontSize=12;" vertex="1" connectable="0" parent="80OvMrxg9aOp4hHYCygl-11">
          <mxGeometry x="-0.0667" relative="1" as="geometry">
            <mxPoint as="offset" />
          </mxGeometry>
        </mxCell>
        <mxCell id="80OvMrxg9aOp4hHYCygl-6" value="imc menor a 18.5" style="rhombus;whiteSpace=wrap;html=1;" vertex="1" parent="1">
          <mxGeometry x="146" y="152" width="80" height="80" as="geometry" />
        </mxCell>
        <mxCell id="80OvMrxg9aOp4hHYCygl-37" style="edgeStyle=none;curved=1;rounded=0;orthogonalLoop=1;jettySize=auto;html=1;entryX=1;entryY=1;entryDx=0;entryDy=0;fontSize=12;startSize=8;endSize=8;" edge="1" parent="1" source="80OvMrxg9aOp4hHYCygl-8" target="80OvMrxg9aOp4hHYCygl-29">
          <mxGeometry relative="1" as="geometry">
            <Array as="points">
              <mxPoint x="824" y="870" />
            </Array>
          </mxGeometry>
        </mxCell>
        <mxCell id="80OvMrxg9aOp4hHYCygl-8" value="imprima bajo peso" style="shape=parallelogram;perimeter=parallelogramPerimeter;whiteSpace=wrap;html=1;fixedSize=1;" vertex="1" parent="1">
          <mxGeometry x="326" y="162" width="120" height="60" as="geometry" />
        </mxCell>
        <mxCell id="80OvMrxg9aOp4hHYCygl-15" value="" style="edgeStyle=none;curved=1;rounded=0;orthogonalLoop=1;jettySize=auto;html=1;fontSize=12;startSize=8;endSize=8;" edge="1" parent="1" source="80OvMrxg9aOp4hHYCygl-10" target="80OvMrxg9aOp4hHYCygl-14">
          <mxGeometry relative="1" as="geometry" />
        </mxCell>
        <mxCell id="80OvMrxg9aOp4hHYCygl-20" value="si" style="edgeLabel;html=1;align=center;verticalAlign=middle;resizable=0;points=[];fontSize=12;" vertex="1" connectable="0" parent="80OvMrxg9aOp4hHYCygl-15">
          <mxGeometry x="-0.0541" y="3" relative="1" as="geometry">
            <mxPoint as="offset" />
          </mxGeometry>
        </mxCell>
        <mxCell id="80OvMrxg9aOp4hHYCygl-17" value="" style="edgeStyle=none;curved=1;rounded=0;orthogonalLoop=1;jettySize=auto;html=1;fontSize=12;startSize=8;endSize=8;" edge="1" parent="1" source="80OvMrxg9aOp4hHYCygl-10" target="80OvMrxg9aOp4hHYCygl-16">
          <mxGeometry relative="1" as="geometry" />
        </mxCell>
        <mxCell id="80OvMrxg9aOp4hHYCygl-21" value="no." style="edgeLabel;html=1;align=center;verticalAlign=middle;resizable=0;points=[];fontSize=12;" vertex="1" connectable="0" parent="80OvMrxg9aOp4hHYCygl-17">
          <mxGeometry x="-0.268" y="-3" relative="1" as="geometry">
            <mxPoint as="offset" />
          </mxGeometry>
        </mxCell>
        <mxCell id="80OvMrxg9aOp4hHYCygl-10" value="Imc esta entre 18.5 y 24.9" style="rhombus;whiteSpace=wrap;html=1;" vertex="1" parent="1">
          <mxGeometry x="104" y="327" width="151" height="134" as="geometry" />
        </mxCell>
        <mxCell id="80OvMrxg9aOp4hHYCygl-33" style="edgeStyle=none;curved=1;rounded=0;orthogonalLoop=1;jettySize=auto;html=1;entryX=1;entryY=0.5;entryDx=0;entryDy=0;fontSize=12;startSize=8;endSize=8;" edge="1" parent="1" source="80OvMrxg9aOp4hHYCygl-14" target="80OvMrxg9aOp4hHYCygl-29">
          <mxGeometry relative="1" as="geometry">
            <Array as="points">
              <mxPoint x="748" y="787" />
            </Array>
          </mxGeometry>
        </mxCell>
        <mxCell id="80OvMrxg9aOp4hHYCygl-14" value="Imprima normal" style="shape=parallelogram;perimeter=parallelogramPerimeter;whiteSpace=wrap;html=1;fixedSize=1;" vertex="1" parent="1">
          <mxGeometry x="319" y="364" width="120" height="60" as="geometry" />
        </mxCell>
        <mxCell id="80OvMrxg9aOp4hHYCygl-19" value="" style="edgeStyle=none;curved=1;rounded=0;orthogonalLoop=1;jettySize=auto;html=1;fontSize=12;startSize=8;endSize=8;" edge="1" parent="1" source="80OvMrxg9aOp4hHYCygl-16" target="80OvMrxg9aOp4hHYCygl-18">
          <mxGeometry relative="1" as="geometry" />
        </mxCell>
        <mxCell id="80OvMrxg9aOp4hHYCygl-22" value="si" style="edgeLabel;html=1;align=center;verticalAlign=middle;resizable=0;points=[];fontSize=12;" vertex="1" connectable="0" parent="80OvMrxg9aOp4hHYCygl-19">
          <mxGeometry x="-0.1004" y="1" relative="1" as="geometry">
            <mxPoint as="offset" />
          </mxGeometry>
        </mxCell>
        <mxCell id="80OvMrxg9aOp4hHYCygl-24" value="" style="edgeStyle=none;curved=1;rounded=0;orthogonalLoop=1;jettySize=auto;html=1;fontSize=12;startSize=8;endSize=8;" edge="1" parent="1" source="80OvMrxg9aOp4hHYCygl-16" target="80OvMrxg9aOp4hHYCygl-23">
          <mxGeometry relative="1" as="geometry">
            <Array as="points" />
          </mxGeometry>
        </mxCell>
        <mxCell id="80OvMrxg9aOp4hHYCygl-27" value="&lt;div&gt;no.&lt;/div&gt;&lt;div&gt;&lt;br&gt;&lt;/div&gt;" style="edgeLabel;html=1;align=center;verticalAlign=middle;resizable=0;points=[];fontSize=12;" vertex="1" connectable="0" parent="80OvMrxg9aOp4hHYCygl-24">
          <mxGeometry x="-0.2678" y="1" relative="1" as="geometry">
            <mxPoint as="offset" />
          </mxGeometry>
        </mxCell>
        <mxCell id="80OvMrxg9aOp4hHYCygl-16" value="Imc esta entre 25 y 29.9" style="rhombus;whiteSpace=wrap;html=1;" vertex="1" parent="1">
          <mxGeometry x="107" y="538" width="151" height="134" as="geometry" />
        </mxCell>
        <mxCell id="80OvMrxg9aOp4hHYCygl-35" style="edgeStyle=none;curved=1;rounded=0;orthogonalLoop=1;jettySize=auto;html=1;entryX=1;entryY=0;entryDx=0;entryDy=0;fontSize=12;startSize=8;endSize=8;" edge="1" parent="1" source="80OvMrxg9aOp4hHYCygl-18" target="80OvMrxg9aOp4hHYCygl-29">
          <mxGeometry relative="1" as="geometry">
            <Array as="points">
              <mxPoint x="595" y="895" />
            </Array>
          </mxGeometry>
        </mxCell>
        <mxCell id="80OvMrxg9aOp4hHYCygl-18" value="imprima sobrepeso" style="shape=parallelogram;perimeter=parallelogramPerimeter;whiteSpace=wrap;html=1;fixedSize=1;" vertex="1" parent="1">
          <mxGeometry x="316" y="578" width="120" height="60" as="geometry" />
        </mxCell>
        <mxCell id="80OvMrxg9aOp4hHYCygl-26" value="" style="edgeStyle=none;curved=1;rounded=0;orthogonalLoop=1;jettySize=auto;html=1;fontSize=12;startSize=8;endSize=8;" edge="1" parent="1" source="80OvMrxg9aOp4hHYCygl-23" target="80OvMrxg9aOp4hHYCygl-25">
          <mxGeometry relative="1" as="geometry" />
        </mxCell>
        <mxCell id="80OvMrxg9aOp4hHYCygl-28" value="si" style="edgeLabel;html=1;align=center;verticalAlign=middle;resizable=0;points=[];fontSize=12;" vertex="1" connectable="0" parent="80OvMrxg9aOp4hHYCygl-26">
          <mxGeometry x="-0.1988" y="-1" relative="1" as="geometry">
            <mxPoint as="offset" />
          </mxGeometry>
        </mxCell>
        <mxCell id="80OvMrxg9aOp4hHYCygl-30" value="" style="edgeStyle=none;curved=1;rounded=0;orthogonalLoop=1;jettySize=auto;html=1;fontSize=12;startSize=8;endSize=8;" edge="1" parent="1" source="80OvMrxg9aOp4hHYCygl-23" target="80OvMrxg9aOp4hHYCygl-29">
          <mxGeometry relative="1" as="geometry" />
        </mxCell>
        <mxCell id="80OvMrxg9aOp4hHYCygl-31" value="no." style="edgeLabel;html=1;align=center;verticalAlign=middle;resizable=0;points=[];fontSize=12;" vertex="1" connectable="0" parent="80OvMrxg9aOp4hHYCygl-30">
          <mxGeometry x="-0.1156" y="2" relative="1" as="geometry">
            <mxPoint as="offset" />
          </mxGeometry>
        </mxCell>
        <mxCell id="80OvMrxg9aOp4hHYCygl-23" value="imc igual a 30" style="rhombus;whiteSpace=wrap;html=1;" vertex="1" parent="1">
          <mxGeometry x="102" y="744" width="151" height="134" as="geometry" />
        </mxCell>
        <mxCell id="80OvMrxg9aOp4hHYCygl-36" style="edgeStyle=none;curved=1;rounded=0;orthogonalLoop=1;jettySize=auto;html=1;fontSize=12;startSize=8;endSize=8;entryX=0.681;entryY=0;entryDx=0;entryDy=0;entryPerimeter=0;" edge="1" parent="1" source="80OvMrxg9aOp4hHYCygl-25" target="80OvMrxg9aOp4hHYCygl-29">
          <mxGeometry relative="1" as="geometry">
            <mxPoint x="181" y="1016" as="targetPoint" />
          </mxGeometry>
        </mxCell>
        <mxCell id="80OvMrxg9aOp4hHYCygl-25" value="imprima obesidad" style="shape=parallelogram;perimeter=parallelogramPerimeter;whiteSpace=wrap;html=1;fixedSize=1;" vertex="1" parent="1">
          <mxGeometry x="319" y="783" width="120" height="60" as="geometry" />
        </mxCell>
        <mxCell id="80OvMrxg9aOp4hHYCygl-29" value="fin" style="ellipse;whiteSpace=wrap;html=1;" vertex="1" parent="1">
          <mxGeometry x="137.5" y="1025" width="80" height="80" as="geometry" />
        </mxCell>
      </root>
    </mxGraphModel>
  </diagram>
</mxfile>
